<?xml version="1.0" encoding="UTF-8"?>
<svg id="Layer_1" data-name="Layer 1" xmlns="http://www.w3.org/2000/svg" viewBox="0 0 468.89 335.79">
  <defs>
    <style>
      .cls-1 {
        fill: #fff;
      }

      .cls-2 {
        isolation: isolate;
      }
    </style>
  </defs>
  <g class="cls-2">
    <g class="cls-2">
      <path class="cls-1" d="M0,200.54h14.34l6.7,40.47,8.36-40.47h12.85l7.87,40.71,7.8-40.71h11.8l-13.69,58.82h-12.57l-8.5-40.68-8.69,40.68h-12.43L0,200.54Z"/>
    </g>
    <g class="cls-2">
      <path class="cls-1" d="M108.88,239.43h-24.72v2.39c0,3.87.57,6.47,1.72,7.78,1.15,1.31,2.65,1.96,4.52,1.96,4,0,6.25-2.46,6.75-7.37l11.73.69c-2.08,10.06-8.32,15.09-18.72,15.09-6.41,0-11.28-1.99-14.61-5.96-3.33-3.97-4.99-9.29-4.99-15.95,0-7.52,1.77-13.25,5.3-17.21,3.53-3.96,8.27-5.94,14.21-5.94,5.35,0,9.82,1.75,13.42,5.25s5.39,9.92,5.39,19.27ZM96.45,232.44c.03-.51.05-.91.05-1.2,0-5.57-2.05-8.36-6.14-8.36s-6.07,3.19-6.1,9.56h12.2Z"/>
      <path class="cls-1" d="M129.21,229.52l-12.48-1.12c.59-4.34,2.61-7.69,6.05-10.03,3.44-2.34,7.78-3.52,13.01-3.52,4.42,0,7.97.78,10.65,2.34,2.68,1.56,4.37,3.37,5.07,5.42.7,2.06,1.05,5.25,1.05,9.56v17.28c0,5.37.26,8.57.79,9.6h-12.24c-.44-1.17-.66-3.39-.66-6.65-2.89,5.03-7.2,7.55-12.92,7.55-3.67,0-6.65-1.01-8.96-3.02-2.3-2.02-3.45-4.95-3.45-8.81,0-4.83,1.74-8.57,5.22-11.21,3.48-2.64,9.82-4.22,19.03-4.74v-1.63c0-2.89-.32-4.89-.95-6-.64-1.11-1.87-1.67-3.7-1.67-3.35,0-5.19,2.22-5.54,6.65ZM139.4,238.4c-3.83.4-6.57,1.18-8.2,2.33-1.64,1.15-2.45,3.1-2.45,5.83,0,3.65,1.46,5.47,4.39,5.47,1.59,0,3.03-.82,4.32-2.46,1.29-1.64,1.94-4.65,1.94-9.04v-2.14Z"/>
      <path class="cls-1" d="M164.21,202.47l12.8-.39v13.68h8.69v9.52h-8.69v15.9c0,2.94.07,4.85.21,5.72.14.87.61,1.6,1.4,2.19.79.59,2.13.88,4,.88,1,0,2.24-.03,3.74-.09v9.17c-2.93.6-5.61.9-8.04.9-3.99,0-7.04-.7-9.16-2.1-2.12-1.4-3.47-3.16-4.07-5.27-.59-2.12-.89-5.47-.89-10.08v-17.23h-5.23v-9.52h5.23v-13.29Z"/>
      <path class="cls-1" d="M191.59,200.54h13.18v19.81c2.37-3.66,6.23-5.49,11.59-5.49,3.21,0,5.74.69,7.59,2.06,1.85,1.37,3.03,3.11,3.53,5.21.5,2.1.75,5.15.75,9.15v27.78h-13.18v-27.81c0-2.83-.29-4.71-.86-5.64-.58-.93-1.77-1.4-3.57-1.4s-3.19.44-4.25,1.33c-1.06.89-1.59,2.9-1.59,6.05v27.47h-13.18v-58.52Z"/>
      <path class="cls-1" d="M273.56,239.43h-24.72v2.39c0,3.87.57,6.47,1.72,7.78,1.15,1.31,2.65,1.96,4.52,1.96,4,0,6.26-2.46,6.75-7.37l11.73.69c-2.09,10.06-8.32,15.09-18.72,15.09-6.41,0-11.28-1.99-14.61-5.96s-4.99-9.29-4.99-15.95c0-7.52,1.77-13.25,5.3-17.21,3.53-3.96,8.27-5.94,14.21-5.94,5.35,0,9.83,1.75,13.42,5.25s5.39,9.92,5.39,19.27ZM261.13,232.44c.03-.51.05-.91.05-1.2,0-5.57-2.05-8.36-6.14-8.36s-6.07,3.19-6.1,9.56h12.2Z"/>
      <path class="cls-1" d="M281.27,215.76h11.59v10.46c2.09-7.34,5.81-11.02,11.17-11.02.65,0,1.4.07,2.24.21v11.79c-.97-.11-1.7-.17-2.2-.17-6.42,0-9.63,4.46-9.63,13.38v18.65h-13.18v-43.3Z"/>
    </g>
    <g class="cls-2">
      <path class="cls-1" d="M84.86,288.12l-11.59,4.07c-1.65-4.83-4.67-7.25-9.07-7.25-2.06,0-3.68.54-4.88,1.61-1.2,1.07-1.8,2.32-1.8,3.75,0,1.66.71,2.98,2.13,3.96,1.42.99,4.38,2.28,8.9,3.88,4.11,1.4,7.34,2.79,9.7,4.16,2.35,1.37,4.25,3.24,5.7,5.59,1.45,2.36,2.17,5.09,2.17,8.21,0,5.46-2.05,9.94-6.15,13.44-4.1,3.5-9.59,5.25-16.47,5.25-11.56,0-18.94-5.36-22.15-16.08l12.24-3.21c1.5,5.89,4.91,8.83,10.23,8.83,2.43,0,4.4-.58,5.91-1.74,1.51-1.16,2.27-2.68,2.27-4.57,0-1.43-.53-2.71-1.59-3.84-1.06-1.13-3.49-2.32-7.29-3.58-4.89-1.6-8.54-3.05-10.93-4.35-2.4-1.3-4.38-3.16-5.93-5.57-1.56-2.41-2.34-5.17-2.34-8.25,0-5.26,1.85-9.57,5.54-12.93,3.69-3.36,8.58-5.04,14.65-5.04,11.09,0,18.01,4.54,20.75,13.63Z"/>
    </g>
    <g class="cls-2">
      <path class="cls-1" d="M94.91,277.32l12.8-.39v13.68h8.69v9.52h-8.69v15.91c0,2.94.07,4.85.21,5.72.14.87.61,1.6,1.4,2.19.79.59,2.13.88,4,.88,1,0,2.24-.03,3.74-.09v9.17c-2.93.6-5.61.9-8.04.9-3.99,0-7.04-.7-9.16-2.1-2.12-1.4-3.47-3.16-4.07-5.27-.59-2.11-.89-5.47-.89-10.07v-17.23h-5.23v-9.52h5.23v-13.29Z"/>
    </g>
    <g class="cls-2">
      <path class="cls-1" d="M135.75,304.37l-12.48-1.12c.59-4.34,2.61-7.69,6.05-10.03,3.44-2.34,7.78-3.52,13.01-3.52,4.42,0,7.97.78,10.65,2.34,2.68,1.56,4.37,3.37,5.07,5.42.7,2.06,1.05,5.25,1.05,9.56v17.28c0,5.37.26,8.57.79,9.6h-12.24c-.44-1.17-.66-3.39-.66-6.64-2.89,5.03-7.2,7.54-12.92,7.54-3.67,0-6.65-1.01-8.96-3.02-2.3-2.01-3.45-4.95-3.45-8.81,0-4.83,1.74-8.57,5.22-11.21,3.48-2.64,9.82-4.22,19.03-4.74v-1.63c0-2.89-.32-4.89-.95-6-.64-1.11-1.87-1.67-3.7-1.67-3.35,0-5.19,2.22-5.54,6.65ZM145.94,313.25c-3.83.4-6.57,1.18-8.2,2.33-1.64,1.15-2.45,3.1-2.45,5.83,0,3.65,1.46,5.47,4.39,5.47,1.59,0,3.03-.82,4.32-2.46,1.29-1.64,1.94-4.65,1.94-9.04v-2.14Z"/>
      <path class="cls-1" d="M170.75,277.32l12.8-.39v13.68h8.69v9.52h-8.69v15.91c0,2.94.07,4.85.21,5.72.14.87.61,1.6,1.4,2.19.79.59,2.13.88,4,.88,1,0,2.24-.03,3.74-.09v9.17c-2.93.6-5.61.9-8.04.9-3.99,0-7.04-.7-9.16-2.1-2.12-1.4-3.47-3.16-4.07-5.27-.59-2.11-.89-5.47-.89-10.07v-17.23h-5.23v-9.52h5.23v-13.29Z"/>
      <path class="cls-1" d="M211.36,287.05h-13.36v-11.96h13.36v11.96ZM198.09,290.61h13.18v43.3h-13.18v-43.3Z"/>
      <path class="cls-1" d="M257.25,312.26c0,15.03-6.38,22.55-19.14,22.55s-19.18-7.52-19.18-22.55,6.39-22.51,19.18-22.51,19.14,7.5,19.14,22.51ZM243.65,312.28c0-5.52-.41-9.26-1.23-11.21-.82-1.95-2.26-2.92-4.3-2.92s-3.41.92-4.28,2.77c-.87,1.85-1.3,5.63-1.3,11.36,0,5.3.37,8.97,1.12,11.04.75,2.06,2.23,3.09,4.47,3.09s3.6-1.02,4.37-3.07,1.16-5.73,1.16-11.06Z"/>
      <path class="cls-1" d="M264.96,290.61h12.48v5.92c2.18-4.52,6.12-6.77,11.82-6.77,3.08,0,5.63.64,7.64,1.91,2.01,1.27,3.29,2.89,3.85,4.87.56,1.97.84,4.97.84,9v28.38h-13.18v-28.38c0-2.92-.41-4.72-1.21-5.4-.81-.69-1.9-1.03-3.27-1.03-2.37,0-3.92.67-4.67,1.99-.75,1.33-1.12,3.81-1.12,7.44v25.38h-13.18v-43.3Z"/>
    </g>
  </g>
  <path class="cls-1" d="M364.37,41.25l-7.13,15.82c-9.79,3.99-19.08-2.8-20.44-12.87-.52-3.83.44-8-.28-11.82-1.45-7.73-4.37-10.09-3.26-20.07,2.13-19.18,22.74-13.19,28.38-.73,1.31,2.9.69,6.87,3.79,8.3,6.7,3.08,12.86-3.82,20.03-2.76,4.25.63,6.99,4.65,10.24,6.18,7.4,3.47,21.1.71,29.41,1.4,9.4-10.5,18.37-22.41,33.16-12.15,19.11,13.27,2.37,39.33-17.89,31.71-8.23-3.09-9.55-8.91-13.52-15.85-9.93-.44-19.93.16-29.7,2.03-2.65,1.7,2.23,4.1,2.99,5.67,1.79,3.68,1.89,20.86,1.35,25.45-.68,5.83-3.08,3.77-6.05,6.04s-1.35,7.43-1.85,11.11c-.27,2.02-2.37,8.94-2.31,9.48.15,1.54,2.42,2.88,2.42,4.45s-2.21,2.85-2.44,4.49c-.22,1.53,1.13,2.98.34,4.57-1.6,3.22-9.5,2.82-12.78,3.7-9.56,2.6-19.57,11.01-28.86,15.19-5.33,2.4-11.02,3.68-16.3,6.16l-.4,38.44c.21,2.68,3.54,2.85,4.69,4.81,1.92,3.24,1.83,27.34,1.38,32.39-.64,7.04-2.36,4-5.04,5.74-2.03,1.32-.93,34.56-.62,39.57l15.57,12.93c24.53-1.07,50.75,1.89,75.04-.95,2.61-.31,5.39-.95,4.48-4.24-2.3-8.27-18.22-3.84-18.71-9.07-.76-2.67,6.94-7.56,6.94-8.61-1.84-3.55-5.26-2.15-7.71-4.4-1.29-4.12,9.47-9.59,8.6-10.7l-8.59-4.01c-1.06-3.57,8.27-6.43,7.6-10.13s-7.73-.86-7.68-4.45c.03-2.51,7.34-6.47,7.82-9.48.39-2.41-5.94-.99-6.9-3.52l6.88-10.29c-.73-2.42-6.88.09-6.92-3.44l6.64-10.43-4.89-2.58c-3.42-2.34,4.07-6.72,5.21-8.58,3.41-5.55-2.53-3.51-5.47-4.98-5.28-2.65,5.01-7.67,5.3-10.76.25-2.65-4.25-2.99-5.12-4.31-2.93-4.44,1.64-6.34,5.23-7.65,11.63-4.24,29.41-2.87,41.34.16,4.77,1.21,9.74,2.79,8.67,8.83-14.81,2.6,2.73,8.15,1.83,12.6-.57,2.84-7.92-.99-7.76,4.27.13,4.43,6.76,4.42,7.76,8.68-1.29,3.09-9.08,1.33-9.5,3.5-.65,3.38,9.53,7.67,9.51,12.06l-7.8,2.64c-.63,3.67,6.97,6,7.81,10.32.52,2.68-7.4.32-7.86,2.72-1.02,5.32,5.67,5.77,7.77,9.51-.44,4.61-7.47,1.23-7.77,5.08-.32,4.13,6.64,5.13,7.01,8.66.5,4.78-7.02,2.65-6.99,6,.03,2.91,8.65,6.49,6.88,10.72l-5.97.94c-1.93,5.58,7.12,7.82,6.11,12.44-.54,2.46-13.94,1.12-17.75,6.58-4.97,7.13,5.81,8.52,2.59,13.82-2.08,3.43-19.96,3.19-24.19,3.44-25.19,1.51-50.65,2.43-75.98,2.62-3.08.57-14.37,11.78-17.33,14.67-.73.72-2.15.72-2.15.84v46.64h-19v-43.62c0-2.94-3.66-4.28-4.69-5.67-1.92-2.59-2.06-30.92-.7-34.27,1.11-2.73,4.72-3.66,5.34-7.61,1.64-10.35-1.13-24.41.06-35.19-5.81-4.24-11.21-11.51-18.17-13.98-6.93-2.45-27.82-1.8-36.7-2.17-22.85-.96-49.27-.31-71.64-3.54-6.99-1.01-.58-6.5-5.63-8.16-4.74-1.56-16.47-1.9-22.02-2.16s-25.54,1.26-28.77-1.89c-3.96-9.51,2.06-6.46,6.65-8.94,2.99-1.62,3.33-7.01,3.56-10.26.87-12.25-1.47-34.46,3.26-45.11,2.86-6.44,8.37-9.21,15.25-9.8,12.27-1.05,24.95,1.09,37.18,1.75,19.45,1.05,39.08,1.44,58.32,4.73,1.36.97,2.36,12.96,2.55,15.58.99,13.34.01,28.13,1.84,41.34,2.94,21.21,21.79,12.91,37.29,14.19l16.88-13.36.1-39.12c-14.47-.84-26.46-8.29-40.97-7.81-1.83.06-4.85,1.89-6.1.04l-1.36-32.32-1.33-1.26-11.52-1,.86-35.41c-10.76-3.37-15.57,7.26-25.54,8.55-18.89,2.46-34.04-14.41-27.76-32.94,8.06-23.8,40.19-19.82,45.32,3.44.9,4.08.43,9.05,1.08,12.74.17.98.31,1.74,1.42,2.03,8.14,2.16,13.82-6.27,20.82-7.44,3.24-.54,10.27-.58,13.54-.13,8.36,1.15,15.33,13.35,24.06,10.95,1.74-.48,2.37-2.04,5.37-2.41,3.49-.43,20.6-.24,22.93,1.3,3.15,4.73-4.68,7.36-8.22,7.36h-28.07l.77,31.87c-10.14,2.35-16.69-1.08-14.53,12.56,1.49,9.39,21.09,7.25,27.77,6.28,21.44-3.12,29.43-9.55,47.6-18.04,9.98-4.67,14.7-2.21,11.62-17.36-.92-2.55-7.58-4.12-7.58-7.1v-21.18ZM361.79,33.48c2.09.54,8.3-2.5,7.77-4.72-3.34-4.17-9.76-.04-7.77,4.72Z"/>
</svg>