<?xml version="1.0" encoding="UTF-8"?>
<svg id="Layer_1" data-name="Layer 1" xmlns="http://www.w3.org/2000/svg" viewBox="0 0 475.04 361.17">
  <defs>
    <style>
      .cls-1 {
        letter-spacing: 0em;
      }

      .cls-2 {
        letter-spacing: -.01em;
      }

      .cls-3 {
        font-family: FranklinGothic-DemiCond, 'Franklin Gothic Demi Cond';
        font-size: 87.8px;
        font-weight: 300;
      }

      .cls-4 {
        letter-spacing: 0em;
      }

      .cls-5 {
        letter-spacing: 0em;
      }
    </style>
  </defs>
  <text class="cls-3" transform="translate(.48 259.4) scale(1.09 1)"><tspan class="cls-2" x="0" y="0">W</tspan><tspan x="61.65" y="0">eather</tspan><tspan class="cls-1" x="36.05" y="74.85">S</tspan><tspan class="cls-5" x="80.34" y="74.85">t</tspan><tspan class="cls-4" x="108.04" y="74.85">ation</tspan></text>
  <path d="M370.48,41.25l-7.13,15.82c-9.79,3.99-19.08-2.8-20.44-12.87-.52-3.83.44-8-.28-11.82-1.45-7.73-4.37-10.09-3.26-20.07,2.13-19.18,22.74-13.19,28.38-.73,1.31,2.9.69,6.87,3.79,8.3,6.7,3.08,12.86-3.82,20.03-2.76,4.25.63,6.99,4.65,10.24,6.18,7.4,3.47,21.1.71,29.41,1.4,9.4-10.5,18.37-22.41,33.16-12.15,19.11,13.27,2.37,39.33-17.89,31.71-8.23-3.09-9.55-8.91-13.52-15.85-9.93-.44-19.93.16-29.7,2.03-2.65,1.7,2.23,4.1,2.99,5.67,1.79,3.68,1.89,20.86,1.35,25.45-.68,5.83-3.08,3.77-6.05,6.04s-1.35,7.43-1.85,11.11c-.27,2.02-2.37,8.94-2.31,9.48.15,1.54,2.42,2.88,2.42,4.45s-2.21,2.85-2.44,4.49c-.22,1.53,1.13,2.98.34,4.57-1.6,3.22-9.5,2.82-12.78,3.7-9.56,2.6-19.57,11.01-28.86,15.19-5.33,2.4-11.02,3.68-16.3,6.16l-.4,38.44c.21,2.68,3.54,2.85,4.69,4.81,1.92,3.24,1.83,27.34,1.38,32.39-.64,7.04-2.36,4-5.04,5.74-2.03,1.32-.93,34.56-.62,39.57l15.57,12.93c24.53-1.07,50.75,1.89,75.04-.95,2.61-.31,5.39-.95,4.48-4.24-2.3-8.27-18.22-3.84-18.71-9.07-.76-2.67,6.94-7.56,6.94-8.61-1.84-3.55-5.26-2.15-7.71-4.4-1.29-4.12,9.47-9.59,8.6-10.7l-8.59-4.01c-1.06-3.57,8.27-6.43,7.6-10.13s-7.73-.86-7.68-4.45c.03-2.51,7.34-6.47,7.82-9.48.39-2.41-5.94-.99-6.9-3.52l6.88-10.29c-.73-2.42-6.88.09-6.92-3.44l6.64-10.43-4.89-2.58c-3.42-2.34,4.07-6.72,5.21-8.58,3.41-5.55-2.53-3.51-5.47-4.98-5.28-2.65,5.01-7.67,5.3-10.76.25-2.65-4.25-2.99-5.12-4.31-2.93-4.44,1.64-6.34,5.23-7.65,11.63-4.24,29.41-2.87,41.34.16,4.77,1.21,9.74,2.79,8.67,8.83-14.81,2.6,2.73,8.15,1.83,12.6-.57,2.84-7.92-.99-7.76,4.27.13,4.43,6.76,4.42,7.76,8.68-1.29,3.09-9.08,1.33-9.5,3.5-.65,3.38,9.53,7.67,9.51,12.06l-7.8,2.64c-.63,3.67,6.97,6,7.81,10.32.52,2.68-7.4.32-7.86,2.72-1.02,5.32,5.67,5.77,7.77,9.51-.44,4.61-7.47,1.23-7.77,5.08-.32,4.13,6.64,5.13,7.01,8.66.5,4.78-7.02,2.65-6.99,6,.03,2.91,8.65,6.49,6.88,10.72l-5.97.94c-1.93,5.58,7.12,7.82,6.11,12.44-.54,2.46-13.94,1.12-17.75,6.58-4.97,7.13,5.81,8.52,2.59,13.82-2.08,3.43-19.96,3.19-24.19,3.44-25.19,1.51-50.65,2.43-75.98,2.62-3.08.57-14.37,11.78-17.33,14.67-.73.72-2.15.72-2.15.84v46.64h-19v-43.62c0-2.94-3.66-4.28-4.69-5.67-1.92-2.59-2.06-30.92-.7-34.27,1.11-2.73,4.72-3.66,5.34-7.61,1.64-10.35-1.13-24.41.06-35.19-5.81-4.24-11.21-11.51-18.17-13.98-6.93-2.45-27.82-1.8-36.7-2.17-22.85-.96-49.27-.31-71.64-3.54-6.99-1.01-.58-6.5-5.63-8.16-4.74-1.56-16.47-1.9-22.02-2.16s-25.54,1.26-28.77-1.89c-3.96-9.51,2.06-6.46,6.65-8.94,2.99-1.62,3.33-7.01,3.56-10.26.87-12.25-1.47-34.46,3.26-45.11,2.86-6.44,8.37-9.21,15.25-9.8,12.27-1.05,24.95,1.09,37.18,1.75,19.45,1.05,39.08,1.44,58.32,4.73,1.36.97,2.36,12.96,2.55,15.58.99,13.34.01,28.13,1.84,41.34,2.94,21.21,21.79,12.91,37.29,14.19l16.88-13.36.1-39.12c-14.47-.84-26.46-8.29-40.97-7.81-1.83.06-4.85,1.89-6.1.04l-1.36-32.32-1.33-1.26-11.52-1,.86-35.41c-10.76-3.37-15.57,7.26-25.54,8.55-18.89,2.46-34.04-14.41-27.76-32.94,8.06-23.8,40.19-19.82,45.32,3.44.9,4.08.43,9.05,1.08,12.74.17.98.31,1.74,1.42,2.03,8.14,2.16,13.82-6.27,20.82-7.44,3.24-.54,10.27-.58,13.54-.13,8.36,1.15,15.33,13.35,24.06,10.95,1.74-.48,2.37-2.04,5.37-2.41,3.49-.43,20.6-.24,22.93,1.3,3.15,4.73-4.68,7.36-8.22,7.36h-28.07l.77,31.87c-10.14,2.35-16.69-1.08-14.53,12.56,1.49,9.39,21.09,7.25,27.77,6.28,21.44-3.12,29.43-9.55,47.6-18.04,9.98-4.67,14.7-2.21,11.62-17.36-.92-2.55-7.58-4.12-7.58-7.1v-21.16ZM367.9,33.48c2.09.54,8.3-2.5,7.77-4.72-3.34-4.17-9.76-.04-7.77,4.72Z"/>
</svg>